<svg width="480" height="703" viewBox="0 0 480 703" fill="none" xmlns="http://www.w3.org/2000/svg">
<g clip-path="url(#clip0_1_8)">
<path d="M70.7022 133.218V191.471L79.0283 209.78C66.2696 229.747 37.7571 280.672 25.777 324.619C10.802 379.537 22.4426 407.83 40.7521 462.759C55.3977 506.686 112.303 519.904 138.938 521.012C144.479 548.196 157.238 609.884 163.897 639.175C170.556 668.466 195.514 682.453 207.165 685.777L222.14 647.501C223.248 663.584 231.125 695.76 253.757 695.76C276.389 695.76 284.266 663.584 285.374 647.501L310.333 677.451L343.627 614.206L355.268 521.012H373.577L433.478 481.058C443.461 464.416 464.765 429.145 470.097 421.148C475.418 413.161 472.313 366.779 470.097 344.586L433.488 258.04C425.72 235.847 409.857 191.471 408.529 191.471C407.191 191.471 414.619 173.72 418.512 164.835V93.2746L470.097 28.3627L433.488 18.3794L373.577 28.3627L267.075 10.0532H223.807L120.629 28.3627L59.0516 18.3794H15.7837L79.0283 93.2746L70.7022 133.218Z" fill="#23353D"/>
<path d="M59.2013 223.937C59.1514 223.997 59.1015 224.096 59.0416 224.146C59.0825 224.071 59.1366 223.993 59.2013 223.937ZM142.752 513.864C142.802 513.913 142.902 513.913 142.952 513.963C143.012 513.963 143.062 514.013 143.111 514.013C143.221 514.073 143.321 514.073 143.381 514.073C143.16 514.043 142.947 513.972 142.752 513.864ZM59.0416 224.146C58.9917 224.196 58.9418 224.306 58.9418 224.306C58.9917 224.256 58.9917 224.196 59.0416 224.146ZM112.293 505.338C114.869 506.236 113.032 505.597 112.293 505.338ZM51.4842 459.654C53.0616 461.501 52.0133 460.283 51.4842 459.654ZM192.22 669.165L192.369 669.314C192.529 669.424 192.689 669.584 192.849 669.684C193.208 669.893 193.418 669.893 192.22 669.165ZM249.284 689.421C249.454 689.421 249.604 689.421 249.714 689.471C249.874 689.471 249.814 689.471 249.294 689.421H249.284ZM182.496 659.101C182.496 659.161 182.496 659.161 182.496 659.101C182.705 659.321 182.865 659.631 183.025 659.85C183.235 660.05 182.865 659.481 182.496 659.111V659.101ZM423.264 105.424C423.335 105.292 423.389 105.151 423.424 105.005C423.364 105.165 423.324 105.324 423.264 105.424Z" fill="white"/>
<path d="M456.4 285.823C450.654 272.482 444.65 259.255 438.39 246.149C431.771 232.042 425.102 218.095 417.854 204.318C417.175 203.051 416.596 201.783 415.957 200.525C417.015 199.207 417.954 197.68 418.803 196.362C420.53 193.566 422.107 190.681 423.525 187.736C426.42 181.736 428.776 175.477 430.194 168.997C433.089 155.839 432.659 142.322 429.455 129.264C428.685 126.014 427.721 122.814 426.57 119.68C425.412 116.485 423.894 113.32 422.946 110.056C422.835 109.73 422.748 109.396 422.686 109.057C422.636 108.798 422.476 107.32 422.526 108.478C422.576 109.277 422.526 108.478 422.476 107.899C422.576 107.37 422.796 106.801 422.896 106.372L423.215 105.473C423.115 105.793 423.055 105.743 423.315 105.114V105.054C424.683 102.059 426.15 99.1138 427.678 96.2186C433.711 84.5718 440.7 73.4454 448.573 62.9541C448.832 62.6446 449.621 61.5365 449.671 61.4866C450.15 60.9075 450.57 60.3285 451.039 59.7495C452.197 58.3218 453.305 56.9042 454.513 55.4866C461.611 46.8593 469.354 38.7829 477.674 31.3268C479.611 29.5897 480.24 26.9042 479.921 24.4383C479.561 21.6929 478.134 20.0656 475.987 18.4383C465.165 10.1721 449.931 8.06562 436.703 8.8543C436.443 8.8543 436.233 8.9142 435.974 8.9142C435.285 8.8543 434.606 8.80438 433.877 8.80438C422.639 8.76853 411.532 11.2305 401.362 16.0124C399.931 16.4749 398.516 16.9844 397.119 17.5398C393.435 19.0174 389.661 20.435 386.137 22.2719C384.56 23.1205 383.042 24.0689 381.515 25.0174C380.842 24.6068 380.176 24.1841 379.518 23.7495C376.323 21.5931 372.909 20.3252 369.285 19.0174C363.356 16.8888 357.363 14.9412 351.315 13.1771C339.17 9.63618 326.83 6.8028 314.357 4.69124C289.318 0.464572 263.881 -0.908596 238.533 0.598066C212.763 2.21852 187.229 6.50088 162.34 13.3768C156.09 15.1238 149.841 16.9708 143.641 18.8576C140.706 19.7561 137.711 20.6546 134.656 21.2736C134.297 21.3335 133.927 21.4333 133.558 21.4832C133.508 21.4832 133.358 21.5431 133.139 21.5431C133.039 21.5431 132.939 21.5931 132.879 21.5931C132.51 21.643 132.14 21.643 131.781 21.6929C131.042 21.7528 130.303 21.7528 129.565 21.7528C129.045 21.7528 127.418 21.9525 126.999 21.653C126.999 21.653 128.576 21.9125 127.518 21.6929L126.47 21.5431C126.05 21.4433 125.372 21.2736 124.683 21.1238C123.082 20.7019 121.505 20.192 119.961 19.5964C119.332 19.3268 118.543 19.1671 117.964 18.7977C119.222 19.5964 118.064 18.8576 117.385 18.5382L113.132 16.6413C107.142 13.9658 101.052 11.5897 94.7626 9.70289C82.8724 6.11886 70.2834 4.38176 57.884 4.11221C45.4448 3.92252 32.686 5.13051 20.8158 9.18375C18.6195 9.92252 16.4631 10.8709 14.3067 11.8094C14.211 11.8083 14.1189 11.7728 14.0471 11.7095C11.5853 11.0583 8.97126 11.3166 6.68454 12.437C4.39782 13.5575 2.5918 15.4649 1.59784 17.8094C-0.299 22.2819 1.17854 28.7611 5.90067 30.9674C11.7909 33.7628 17.5612 36.9175 22.8125 40.7511C22.9123 40.8609 23.0721 41.0207 23.2318 41.1305L24.919 42.4982C28.7025 45.7048 32.2616 49.1671 35.5712 52.8609C37.8275 55.3368 40.0338 57.9125 42.1403 60.5481C42.6594 61.227 43.1885 61.8659 43.7176 62.5448C43.7676 62.5947 43.8175 62.7045 43.8674 62.7544C44.9256 64.1222 45.914 65.4899 46.9123 66.8576C51.0654 72.4882 55.0987 78.1787 59.0421 83.9092L64.8724 92.435C66.3499 94.6513 68.1869 96.9075 70.2834 98.8043C69.0571 100.366 67.9012 101.982 66.8191 103.646C63.4547 108.858 60.8291 115.067 58.9922 120.957C55.3516 132.511 53.648 144.588 53.9506 156.698C54.2701 168.748 56.5762 180.957 61.1985 192.059C63.7243 198.109 66.6594 204.688 71.7509 209.011C70.178 210.682 68.6369 212.382 67.1286 214.112C66.6095 214.691 66.1303 215.27 65.6112 215.849C65.3267 216.195 65.0269 216.528 64.7127 216.848C64.3533 217.217 64.0837 217.586 63.7742 218.006C62.8258 219.214 62.8258 219.264 63.6744 218.105C62.1469 219.373 60.9889 221.58 59.7809 223.217C59.7809 223.217 59.7809 223.267 59.731 223.267C59.681 223.317 59.4714 223.636 58.8924 224.365C58.0937 225.423 57.3649 226.481 56.5762 227.53C48.989 238.459 42.3651 250.027 36.7792 262.102C25.2285 286.891 16.8225 313.097 12.7293 340.202C8.53628 368.045 7.53794 396.778 12.9389 424.511C15.5646 438.039 20.1869 451.407 27.2151 463.297C34.6428 475.806 44.8258 486.179 56.107 495.174C67.5579 504.278 79.528 513.223 92.3865 520.232C99.1153 523.916 106.204 527.12 113.551 529.337C119.741 531.233 126.679 532.911 133.298 532.382C133.081 533.762 132.925 535.151 132.829 536.545C132.51 540.807 132.35 545.07 132.35 549.323C132.3 557.859 133.298 566.175 134.606 574.591C137.082 590.115 140.696 605.589 145.218 620.634C149.262 634.272 154.503 647.899 161.861 660.109C168.949 671.889 178.513 683.05 191.062 689.16C197.312 692.215 204.56 693.683 210.33 688.841C212.586 686.944 213.744 684.268 214.852 681.583L216.11 678.268C216.26 677.899 217.109 676.002 217.468 675.104L219.205 671.21C219.465 672.528 219.784 673.846 220.104 675.104C222.619 684.208 228.19 692.734 236.217 697.896C254.227 709.476 275.861 696.368 283.688 678.847C286.363 672.787 287.881 666.528 288.939 660.159C293.771 667.047 298.972 673.686 304.593 680.055C306.27 681.952 310.154 682.112 311.781 680.055C311.941 679.896 312.05 679.686 312.2 679.526C317.611 677.949 320.656 672.368 323.811 667.796C326.856 663.373 329.801 658.841 332.526 654.218C338.126 644.568 342.902 634.462 346.803 624.009C354.42 603.802 358.463 582.478 359.302 560.914C359.402 557.859 359.402 554.854 359.362 551.799C359.561 544.591 359.461 537.383 358.942 530.235C361.199 530.285 363.455 530.175 365.761 529.916C372.23 529.161 378.593 527.677 384.729 525.493C396.43 521.5 407.671 515.969 417.804 508.751C438.907 493.812 455.506 473.369 465.794 449.649C476.516 424.623 481.126 397.403 479.242 370.242C477.195 340.881 467.841 312.877 456.4 285.833V285.823ZM448.892 26.4849C448.892 26.4849 448.154 26.3851 447.894 26.3252C448.363 26.3851 448.892 26.425 448.892 26.4849ZM74.0171 481.127L73.5379 480.807C72.2301 479.759 73.5479 480.758 74.0171 481.127ZM200.147 676.421C200.087 676.471 200.087 676.521 200.047 676.581C199.778 676.841 199.408 676.951 200.147 676.421ZM385.199 508.391C385.4 508.283 385.61 508.193 385.827 508.122C385.637 508.249 385.423 508.347 385.199 508.391ZM462.17 396.927L461.701 401.61C461.651 402.288 461.541 402.927 461.441 403.606C461.392 403.976 461.392 404.135 461.392 404.235C461.332 404.395 461.332 404.555 461.332 404.714C459.944 414.225 457.712 423.593 454.663 432.708C453.664 435.653 452.566 438.598 451.358 441.493C451.358 441.493 451.358 441.553 451.308 441.603C451.209 441.813 451.039 442.132 451.039 442.292C450.729 443.02 450.41 443.709 450.1 444.448C446.827 451.643 442.943 458.543 438.49 465.074C437.698 466.281 436.859 467.457 435.974 468.598C435.555 469.177 435.135 469.756 434.656 470.335L434.556 470.435C434.347 470.704 434.077 471.074 434.027 471.074C428.539 477.927 422.386 484.221 415.658 489.862C414.759 490.601 413.601 492.019 412.553 492.388C412.713 492.338 414.02 491.29 412.753 492.228L412.024 492.807C411.345 493.287 410.716 493.806 410.027 494.285C407.685 495.977 405.287 497.592 402.839 499.127C397.847 502.222 392.756 505.067 387.395 507.493C386.766 507.812 386.087 508.072 385.458 508.391C385.248 508.491 385.199 508.491 385.199 508.491C385.083 508.549 384.958 508.583 384.829 508.591C380.735 510.215 376.563 511.638 372.33 512.854C366.759 514.441 361.089 515.699 355.528 517.277C354.21 517.646 352.902 518.015 351.585 518.335C351.102 518.391 350.627 518.498 350.167 518.654L347.332 519.283C345.175 519.703 343.608 522.079 343.608 524.225C343.608 525.223 343.967 526.382 344.656 527.28C344.496 529.177 344.706 531.174 344.756 532.861C344.816 535.596 344.856 538.282 344.966 541.017C345.143 546.367 345.109 551.723 344.866 557.07C344.683 562.343 344.316 567.607 343.768 572.854C343.658 573.952 343.498 575.01 343.398 576.119C343.398 576.278 343.238 577.117 343.238 577.376L343.079 578.644C340.896 593.876 337.001 608.812 331.468 623.17C330.861 624.763 330.215 626.341 329.531 627.902C329.272 628.531 328.952 629.22 328.693 629.849C324.27 640.025 319.129 649.874 313.308 659.32C311.681 661.846 309.625 664.421 308.057 667.107C302.167 658.371 296.297 649.636 290.357 640.951C287.052 636.159 279.904 638.005 279.545 643.896C279.016 652.641 278.017 661.107 274.972 669.533C273.969 672.255 272.684 674.865 271.139 677.32C270.879 677.739 270.56 678.159 270.3 678.578C269.011 680.3 267.571 681.904 265.997 683.37C264.791 684.585 263.412 685.614 261.904 686.425C261.105 686.894 260.317 687.323 259.538 687.733C259.262 687.834 258.995 687.957 258.739 688.102C258.48 688.212 258.27 688.322 258.011 688.372C257.062 688.681 256.114 688.951 255.175 689.21C254.806 689.31 254.387 689.37 254.017 689.42C253.917 689.42 253.817 689.47 253.758 689.47H253.388C252.39 689.53 251.451 689.53 250.453 689.47C250.243 689.47 249.974 689.42 249.764 689.42C249.664 689.42 249.505 689.42 249.345 689.37H249.245H249.295H249.195C248.256 689.172 247.324 688.942 246.4 688.681C246.2 688.631 245.991 688.531 245.771 688.481C246.04 688.531 245.042 688.162 244.773 688.052C243.922 687.631 243.099 687.157 242.307 686.634L241.368 686.005C242.367 686.684 241.308 685.946 241.099 685.786C239.621 684.534 238.267 683.143 237.055 681.633L236.956 681.533C236.89 681.451 236.836 681.36 236.796 681.263C236.586 680.954 236.327 680.634 236.117 680.315C235.638 679.586 235.169 678.847 234.749 678.059C234.33 677.26 233.961 676.471 233.541 675.683C233.499 675.59 233.446 675.502 233.382 675.423C233.382 675.373 233.332 675.373 233.332 675.323L232.703 673.686C230.966 668.694 230.446 664.421 230.287 659.37C230.187 656.634 230.387 653.899 230.387 651.164C230.387 648.528 230.237 646.322 230.756 643.846C231.335 640.901 230.177 637.856 227.242 636.688C225.894 636.115 224.385 636.05 222.993 636.505C221.602 636.961 220.423 637.905 219.674 639.164C214.793 646.901 211.019 655.317 206.916 663.473C205.019 667.217 203.192 670.951 201.145 674.584C200.826 674.425 200.456 674.265 200.147 674.105C197.571 672.847 195.109 671.367 192.789 669.683L192.53 669.533C192.48 669.473 192.37 669.433 192.32 669.313C192.22 669.213 192.11 669.163 191.951 669.054C192.001 669.104 192.05 669.104 192.16 669.154C191.681 668.799 191.224 668.416 190.793 668.005C189.624 666.988 188.504 665.915 187.438 664.791C186.398 663.741 185.399 662.652 184.443 661.526C183.974 661.007 183.545 660.428 183.075 659.899L183.025 659.849L182.656 659.37C182.606 659.32 182.556 659.21 182.496 659.17L182.397 659.06L182.446 659.11C180.625 656.622 178.909 654.057 177.305 651.423C174.907 647.416 172.75 643.269 170.846 639.004C170.476 638.215 170.157 637.426 169.788 636.688L169.478 635.959C167.028 629.939 164.856 623.809 162.969 617.589C158.597 603.631 154.952 589.456 152.047 575.12C151.222 570.893 150.503 566.645 149.891 562.381V562.282C149.841 561.852 149.791 561.433 149.731 561.064L149.421 558.119C149.217 556.501 148.988 554.887 148.733 553.277C148.683 552.857 148.633 552.438 148.533 551.959C148.533 551.809 148.473 551.699 148.473 551.589V551.49C147.944 547.177 147.475 542.804 147.215 538.441C146.946 534.069 146.476 530.964 146.007 527.23C146.736 526.651 147.475 526.072 148.154 525.493C149.841 524.125 150.31 521.39 149.791 519.383C149.152 517.127 147.525 515.859 145.428 515.02C145.268 514.971 145.169 514.921 145.109 514.921C145.059 514.861 145.009 514.861 144.909 514.811C144.32 514.541 143.691 514.282 143.112 514.012C143.062 514.012 143.012 513.962 142.962 513.962C142.803 513.912 142.643 513.812 142.483 513.763C142.583 513.812 142.693 513.812 142.753 513.862C142.383 513.653 142.014 513.383 141.804 513.333C140.57 512.693 139.288 512.149 137.971 511.706C135.241 510.951 132.447 510.456 129.624 510.228C124.74 509.431 119.941 508.181 115.288 506.495C114.19 506.075 113.132 505.596 112.084 505.227C112.134 505.277 112.243 505.277 112.283 505.327C112.243 505.277 112.184 505.277 112.184 505.277C111.544 504.999 110.915 504.7 110.297 504.378C107.991 503.28 105.674 502.122 103.418 500.864C94.1236 495.753 85.4581 489.603 76.9523 483.293C76.0001 482.554 75.0349 481.832 74.0571 481.127C73.6478 480.658 72.9589 480.288 72.4897 479.919C70.2834 478.182 68.077 476.385 65.9805 474.548C62.087 471.184 58.3632 467.599 54.9489 463.766C54.0123 462.719 53.1035 461.647 52.2235 460.551C51.904 460.182 51.6444 459.812 51.325 459.453C51.4248 459.553 51.4847 459.603 51.5346 459.713C51.4847 459.653 51.4348 459.603 51.4348 459.553C49.8556 457.431 48.3829 455.232 47.0221 452.964C45.1829 449.968 43.5324 446.861 42.0804 443.659L41.3017 441.862C37.4392 431.945 34.726 421.618 33.2151 411.084C30.5895 390.558 31.2185 369.553 33.8441 349.037C36.7172 328.467 41.7328 308.254 48.8092 288.728C49.6478 286.412 50.5363 284.095 51.4348 281.839C51.904 280.571 52.4331 279.353 52.9523 278.095C53.1145 277.738 53.2546 277.372 53.3716 276.997L53.691 276.298C55.7875 271.357 58.0438 266.515 60.4597 261.673C65.2091 252.29 70.2193 243.042 75.4847 233.939C78.3799 228.947 81.2551 223.886 84.2501 218.944L88.8225 211.576C89.0221 211.207 89.2917 210.838 89.5513 210.478C89.9189 210.03 90.2213 209.533 90.4498 209.001C90.7093 208.521 91.0288 208.102 91.2385 207.623C92.0771 206.105 92.4365 204.259 92.9656 202.571C94.0138 199.257 91.3982 196.731 88.503 196.521C87.1353 193.836 85.6078 191.31 84.1503 188.635C83.4115 187.257 82.7825 185.839 82.0937 184.472C82.0438 184.422 82.0438 184.312 81.9939 184.262C79.5827 177.881 77.8428 171.266 76.8025 164.525C76.1636 158.944 75.904 153.313 76.1636 147.683C76.2135 146.215 76.3233 144.688 76.483 143.21C76.533 142.422 76.6328 141.583 76.7426 140.794C76.7426 140.695 76.7925 140.525 76.7925 140.425C77.2717 137.48 77.8408 134.535 78.5296 131.64C79.2584 128.744 80.1569 125.899 80.9955 123.054C81.4647 121.526 81.9439 119.999 82.4631 118.531C82.9922 117.114 83.7809 115.636 84.1503 114.159L84.939 112.322C85.2484 111.523 85.508 110.744 85.8275 109.956C86.087 109.267 86.4065 108.588 86.6661 107.899C86.6661 107.849 86.6661 107.849 86.716 107.799L87.5147 105.903C87.6644 105.373 88.5529 102.848 87.6145 105.054C88.1336 103.856 88.513 103.007 88.8125 101.799C89.5113 99.5331 90.0804 97.217 89.2917 94.791C89.0592 94.0703 88.7047 93.395 88.2434 92.7944L87.924 90.588C87.9839 91.0573 88.0837 91.5365 88.1336 92.0556C88.0338 91.5864 87.9839 89.6895 87.7143 88.7411C87.0525 86.4202 86.0643 84.205 84.7792 82.1621C83.092 79.4766 81.2052 76.8509 79.4181 74.2153C75.3962 68.2635 71.2657 62.3856 67.0288 56.5847C57.9439 44.1654 48.0704 32.5448 35.8408 23.2204C35.4714 22.9109 35.102 22.6413 34.7426 22.3218C39.9887 21.7354 45.2586 21.3857 50.5363 21.2736C56.4265 21.1738 62.3566 21.4333 68.2368 22.0723C68.8158 22.1222 69.5446 22.1222 70.1336 22.2719L69.7543 22.222L70.8125 22.3818L75.6943 23.1804C84.4016 24.8023 92.9428 27.2149 101.212 30.3884L103.209 31.1671C103.418 31.227 103.578 31.3268 103.788 31.4367C105.205 32.0656 106.623 32.6347 107.981 33.2736C111.185 34.6413 114.39 36.0689 117.754 37.1172C124.683 39.2736 131.671 39.3834 138.709 37.9159C144.849 36.648 150.729 34.2719 156.719 32.425C168.816 28.7028 181.103 25.6302 193.528 23.2204C199.766 21.9947 206.035 20.9261 212.327 20.0157C212.856 19.9658 213.425 19.856 213.954 19.806C214.114 19.806 214.902 19.7062 215.272 19.6463C216.839 19.4367 218.466 19.227 220.044 19.0673C223.089 18.6979 226.194 18.4383 229.228 18.1189C247.553 16.5113 265.98 16.4412 284.317 17.9092C287.362 18.1688 290.407 18.4383 293.451 18.7478C294.929 18.9075 296.397 19.0673 297.814 19.2769C298.553 19.3768 299.282 19.4866 300.021 19.5365H300.12C300.44 19.5964 300.759 19.6363 301.069 19.6363C319.624 22.2542 337.916 26.4832 355.738 32.2753C361.927 34.2719 368.017 37.1172 374.536 38.0157C376.683 38.2753 375.435 38.1654 375.006 38.1155C375.375 38.1654 375.744 38.2154 376.164 38.3252C376.323 38.3252 376.473 38.3851 376.633 38.3851C378.001 39.2836 379.628 39.643 381.255 39.1139C387.145 37.0673 393.235 35.3801 399.215 33.6929C404.964 32.0315 410.757 30.5234 416.586 29.1704C419.691 28.4816 422.846 27.8027 425.941 27.1738C427.358 26.9042 428.776 26.6946 430.243 26.435H430.303C430.563 26.3851 430.773 26.3851 431.032 26.3352C431.931 26.2253 432.829 26.1155 433.718 26.0656C436.713 25.806 439.758 25.7461 442.803 25.856C444.27 25.9059 445.688 26.0157 447.155 26.1155C447.255 26.1155 447.684 26.1754 448.104 26.1754C448.204 26.1754 448.363 26.2253 448.783 26.2753C449.202 26.3252 449.681 26.435 450.1 26.4849C450.829 26.5847 451.518 26.7545 452.247 26.9042C453.295 27.2237 454.303 27.5931 455.342 27.9624C455.871 28.1621 456.4 28.3817 456.919 28.5415C441.085 44.4709 427.532 62.5157 416.646 82.1621C413.232 88.2719 409.558 94.6912 407.362 101.37C405.984 105.533 406.094 110.056 407.302 114.269C408.2 117.423 409.608 120.478 410.716 123.583C412.336 128.219 413.618 132.967 414.55 137.789C414.699 138.528 414.809 139.317 414.919 140.056C414.919 140.155 414.969 140.365 415.019 140.635C415.384 143.85 415.577 147.083 415.598 150.318C415.598 153.214 415.698 156.578 415.019 159.423C415.019 159.423 415.278 157.736 415.119 158.685C415.019 159.214 414.969 159.733 414.859 160.212L414.39 162.688C414.061 164.336 413.658 165.968 413.182 167.58C412.713 169.207 412.184 170.844 411.654 172.422C411.395 173.21 411.085 174.049 410.766 174.838C410.716 175.047 410.606 175.257 410.556 175.477C408.996 178.956 407.243 182.346 405.305 185.63C404.357 187.207 403.308 188.784 402.36 190.422C401.212 192.418 400.523 194.415 400.842 196.731C401.002 197.729 401.262 198.628 401.521 199.576C401.621 199.996 401.841 200.415 402.05 200.784C402.21 201.942 402.36 203.1 402.789 204.159C403.628 206.255 404.307 207.623 404.936 209.25C406.353 212.784 407.831 216.358 409.238 219.892C412.233 227.31 415.548 234.568 418.852 241.886C424.892 255.044 430.982 268.142 436.862 281.36C438.34 284.615 439.758 287.939 441.165 291.244C441.385 291.773 441.644 292.302 441.854 292.881C441.954 293.09 442.373 294.199 442.483 294.408C443.222 296.145 443.901 297.833 444.58 299.57C447.205 306.089 449.671 312.718 451.887 319.407C454.084 326.095 456.08 332.824 457.768 339.613C458.606 342.977 459.335 346.352 459.964 349.716C460.603 353.03 461.491 356.555 461.701 359.929C461.601 357.823 461.751 360.189 461.801 360.718C461.911 361.506 462.02 362.295 462.07 363.034L462.54 368.025C462.809 371.19 462.959 374.295 463.019 377.45C462.959 384.139 462.749 390.568 462.17 396.927Z" fill="white"/>
<path d="M299.77 239.94L299.9 239.82C299.861 239.865 299.818 239.905 299.77 239.94ZM303.604 221.94L303.544 221.81C303.563 221.854 303.582 221.897 303.604 221.94ZM138.429 365.82L138.359 365.69C138.319 365.591 138.3 365.561 138.429 365.82ZM135.814 317.98C139.478 323.022 144.968 327.324 151.218 328.433C154.403 329.028 157.685 328.831 160.776 327.858C163.866 326.884 166.67 325.165 168.938 322.852C173.201 318.559 175.727 312.699 177.115 306.888C178.742 300 179.181 292.742 178.213 285.744C177.245 278.725 174.319 271.907 169.168 266.945C164.356 262.313 157.557 259.058 150.759 259.637C144.918 260.126 139.637 262.732 136.323 267.634C132.938 272.626 132.08 279.155 132.978 285.045C129.834 296.136 128.885 308.396 135.814 317.98ZM141.035 277.997L141.155 277.707C141.464 276.978 141.754 276.259 142.043 275.531C141.704 276.389 142.143 275.331 142.293 275.032C142.522 274.542 142.772 274.083 143.042 273.634C143.261 273.264 143.561 272.925 143.76 272.546L144.08 272.176C144.329 271.907 144.599 271.637 144.859 271.388L145.258 271.018C145.517 270.799 145.577 270.699 145.557 270.689C146.067 270.319 146.865 270.05 147.295 269.79L147.324 269.78L147.504 269.72C147.963 269.571 148.423 269.421 148.882 269.301C149.386 269.17 149.895 269.063 150.409 268.982L151.208 268.922C151.787 268.882 152.356 268.882 152.945 268.902L153.504 268.942C153.275 268.932 154.133 269.012 154.303 269.041C154.942 269.181 155.571 269.341 156.2 269.541L157.018 269.81L157.517 270.01C158.656 270.559 159.754 271.178 160.792 271.897L161.321 272.276L161.81 272.675C162.319 273.125 162.809 273.574 163.288 274.073C163.707 274.502 164.106 274.952 164.496 275.391L164.666 275.591C166.599 278.106 167.962 281.012 168.659 284.106C169.428 287.131 169.657 289.318 169.697 292.592C169.697 294.16 169.657 295.707 169.537 297.264C169.488 297.963 169.418 298.632 169.338 299.331C169.299 299.795 169.249 300.257 169.188 300.719L169.148 300.998C168.739 303.494 168.2 305.95 167.401 308.346C167.221 308.885 167.022 309.404 166.822 309.943L166.742 310.163L166.712 310.243C166.096 311.693 165.347 313.083 164.476 314.396L163.837 315.294C163.47 315.756 163.08 316.199 162.669 316.622C162.3 316.992 161.91 317.341 161.521 317.69C160.588 318.389 159.58 318.981 158.516 319.457L158.146 319.597C157.547 319.797 156.958 319.927 156.349 320.076C156.28 320.076 156.23 320.096 156.18 320.106C155.82 320.146 155.471 320.176 155.102 320.176C154.562 320.196 154.033 320.156 153.504 320.146H153.324L153.245 320.136C152.385 319.985 151.538 319.771 150.709 319.497C150.449 319.418 150.2 319.318 149.95 319.228L149.72 319.138C148.574 318.574 147.473 317.923 146.426 317.191L145.947 316.832C145.777 316.692 145.607 316.562 145.448 316.403C144.908 315.935 144.389 315.446 143.89 314.935C141.939 312.989 140.389 310.68 139.328 308.136C138.858 306.873 138.474 305.579 138.18 304.263C137.819 302.602 137.582 300.917 137.471 299.221C137.141 294.669 137.631 290.136 138.319 285.624C139.218 283.308 139.907 280.932 140.755 278.606C140.785 278.665 140.965 278.196 141.035 277.997ZM199.128 286.782C201.474 283.667 203.82 280.512 206.316 277.517L207.654 275.99C207.767 282.612 208.11 289.228 208.682 295.827C209.092 300.629 209.631 305.421 210.27 310.203C210.619 312.928 210.918 315.694 211.468 318.379C211.707 319.507 211.987 320.675 212.366 321.774C212.596 322.442 212.845 323.231 213.205 323.85C213.684 324.659 214.383 324.998 215.042 325.517C216.439 326.655 218.466 326.636 219.474 324.948C220.273 323.621 220.812 322.692 220.852 320.905C220.856 319.647 220.776 318.389 220.612 317.141C220.333 314.596 219.864 312.08 219.494 309.554C218.123 300.15 217.22 290.684 216.789 281.191C216.549 276.299 216.569 271.328 216.2 266.436C216.08 264.769 215.271 263.291 213.654 262.642C212.186 262.043 210.26 262.243 209.131 263.501C207.694 265.098 206.546 266.895 205.198 268.552C203.79 270.269 202.413 272.037 201.175 273.873C198.771 277.391 196.903 281.247 195.634 285.314C194.935 287.531 197.91 288.409 199.128 286.782ZM259.817 261.404C256.948 261.908 254.258 263.146 252.01 264.998C251.762 264.98 251.513 265.024 251.286 265.127C251.059 265.23 250.862 265.388 250.712 265.587C249.814 266.745 248.865 267.883 247.967 269.051C246.968 270.349 246.329 271.837 245.541 273.245C243.993 275.98 243.035 279.334 242.266 282.369C240.672 288.564 240.136 294.984 240.679 301.358C241.288 307.897 243.075 314.126 247.248 319.298C251.042 323.99 256.882 327.205 262.982 327.254C268.932 327.294 274.742 324.289 278.715 319.937C283.028 315.185 285.364 309.035 286.373 302.765C288.309 290.586 287.471 276.509 277.947 267.524C273.135 262.982 266.466 260.216 259.817 261.404ZM277.458 298.153L277.328 299.321C277.228 299.96 277.128 300.609 277.008 301.258C276.66 303.119 276.182 304.953 275.581 306.749C275.481 307.068 275.341 307.398 275.241 307.717L275.072 308.116C274.572 309.252 273.984 310.347 273.314 311.391L272.765 312.22L272.416 312.679L272.266 312.858L271.657 313.527C271.293 313.912 270.913 314.281 270.519 314.636L269.84 315.235L269.74 315.314L269.541 315.454C268.74 315.992 267.907 316.479 267.045 316.912C266.945 316.932 266.246 317.211 266.087 317.281C265.448 317.481 264.809 317.611 264.15 317.75C264.978 317.561 263.73 317.78 263.421 317.79C262.991 317.795 262.562 317.782 262.133 317.75C262.083 317.73 261.314 317.641 261.105 317.591C260.521 317.443 259.944 317.267 259.378 317.061C259.448 317.071 258.619 316.702 258.469 316.612C257.773 316.235 257.106 315.808 256.473 315.334L256.253 315.135C255.799 314.724 255.359 314.298 254.935 313.857C254.715 313.637 254.526 313.408 254.306 313.178L254.126 312.978C254.027 312.829 253.807 312.559 253.777 312.499C253.637 312.299 253.507 312.13 253.388 311.94C252.677 310.842 252.059 309.687 251.541 308.486C251.531 308.426 251.181 307.517 251.141 307.368C250.946 306.806 250.763 306.24 250.592 305.67C250.237 304.348 249.947 303.008 249.724 301.657L249.654 301.178C249.523 300.116 249.426 299.051 249.364 297.983C249.265 296.486 249.265 294.968 249.245 293.451C249.245 290.636 249.404 287.71 249.824 284.965C250.273 282.04 251.022 279.215 251.631 276.339C251.77 275.7 251.93 275.081 252.09 274.472C253.168 273.414 254.246 272.805 255.694 272.007L257.092 271.208L257.341 271.088L257.78 270.928C258.23 270.769 258.689 270.639 259.148 270.529C259.408 270.469 260.486 270.309 260.206 270.319C261.155 270.22 262.103 270.15 263.052 270.16C263.441 270.17 263.82 270.2 264.2 270.249L265.308 270.499C265.807 270.629 266.286 270.799 266.765 270.968C266.845 271.018 267.544 271.318 267.704 271.388C268.415 271.768 269.105 272.188 269.77 272.645L269.97 272.775C271.16 273.743 272.241 274.838 273.195 276.04L273.394 276.309C273.594 276.629 273.814 276.938 274.023 277.248C274.677 278.288 275.257 279.372 275.76 280.492C276.084 281.347 276.377 282.213 276.639 283.088C277.997 287.95 278.017 292.802 277.458 298.153ZM342.29 271.677C338.556 266.486 333.185 262.772 326.775 261.844C321.304 261.045 312.998 262.063 311.221 268.283C307.773 273.195 305.174 278.652 303.534 284.426C301.697 290.655 300.839 297.444 302.476 303.814C305.141 314.216 314.596 324.359 326.007 323.91C337.198 323.461 344.546 313.817 347.131 303.704C348.409 298.692 348.689 293.421 348.08 288.299C347.381 282.449 345.784 276.529 342.29 271.677ZM320.895 270.569C321.414 270.449 321.115 270.519 320.895 270.569ZM320.895 313.917C321.394 314.186 321.095 314.017 320.895 313.917ZM339.095 296.116C339.055 296.655 338.995 297.175 338.945 297.714L338.925 297.863L338.945 297.684C338.927 297.78 338.913 297.876 338.905 297.973L338.795 298.682C338.436 300.739 337.897 302.765 337.178 304.712L336.968 305.271L336.948 305.301C336.352 306.654 335.64 307.953 334.822 309.185C334.722 309.344 334.003 310.283 334.243 310.003C334.013 310.263 333.804 310.542 333.564 310.792C333.265 311.111 332.965 311.421 332.656 311.72L332.106 312.22L331.697 312.549L330.968 313.048C330.549 313.308 330.12 313.547 329.691 313.777L329.231 313.997C328.702 314.126 328.163 314.366 327.624 314.496C327.195 314.596 326.765 314.685 326.326 314.755H326.216L325.597 314.795C325.038 314.805 324.499 314.765 323.96 314.745L323.84 314.735L323.611 314.685L322.962 314.556C322.215 314.371 321.481 314.138 320.765 313.857C319.778 313.364 318.824 312.807 317.91 312.19C317.9 312.19 317.81 312.1 317.71 312.04L317.311 311.72C316.489 311.035 315.724 310.284 315.025 309.474C314.915 309.344 314.276 308.556 314.266 308.576C313.341 307.318 312.538 305.974 311.87 304.562L311.581 303.943C310.552 301.39 310.003 298.669 309.963 295.917C309.843 293.011 310.078 290.1 310.662 287.251C311.71 282 313.677 276.988 314.915 271.797C316.413 271.547 317.94 271.248 319.428 270.898L320.765 270.599L320.825 270.579L321.554 270.509C322.532 270.439 323.501 270.459 324.479 270.539C324.569 270.569 325.198 270.649 325.388 270.689C325.857 270.789 326.316 270.898 326.775 271.038C327.225 271.168 327.674 271.338 328.123 271.487C328.023 271.477 329.121 271.957 329.291 272.046C329.71 272.276 330.13 272.516 330.539 272.775L331.438 273.434C332.256 274.133 333.025 274.902 333.734 275.72L334.183 276.23C334.203 276.259 334.203 276.269 334.233 276.279C334.253 276.309 334.253 276.329 334.293 276.359C334.592 276.799 334.892 277.228 335.171 277.677C335.79 278.675 336.339 279.724 336.829 280.802L336.928 281.022L337.248 281.88C338.147 284.395 338.737 287.01 339.005 289.667C339.115 290.895 339.175 292.123 339.185 293.361C339.185 294.279 339.165 295.198 339.085 296.116H339.095Z" fill="white"/>
<path d="M162.459 350.656C159.267 349.647 155.885 349.387 152.576 349.897C150.22 350.256 148.203 351.145 146.506 352.562C146.156 351.594 145.038 351.015 144.11 351.923C143.511 352.502 143.042 352.792 142.343 353.211C141.474 353.74 140.995 354.529 140.446 355.348C139.478 356.795 138.489 358.263 137.671 359.81C136.003 362.935 134.576 366.299 133.428 369.644C131.361 375.584 130.213 382.083 130.692 388.393C131.201 395.091 133.308 401.451 137.641 406.652C141.275 410.995 146.745 414.339 152.336 415.328C179.631 420.14 187.697 381.534 177.454 362.975C174.226 357.093 168.856 352.681 162.459 350.656ZM144.24 399.774C144.389 399.953 144.339 399.883 144.24 399.774ZM147.235 402.739C147.804 403.218 147.404 402.859 147.235 402.739ZM172.023 386.226L171.943 386.885V386.905L171.664 388.552C171.235 390.772 170.614 392.95 169.807 395.062L169.657 395.461C168.945 397.115 168.069 398.694 167.042 400.173C166.892 400.363 166.742 400.552 166.612 400.752L166.572 400.792C166.153 401.231 165.784 401.71 165.374 402.14C165.002 402.524 164.613 402.89 164.206 403.238L163.707 403.677C163.677 403.677 163.667 403.697 163.637 403.717C162.836 404.25 162.002 404.733 161.141 405.165C161.411 405.015 160.343 405.474 160.143 405.544C159.584 405.714 159.035 405.844 158.476 405.983C158.357 406.011 158.237 406.031 158.116 406.043C158.037 406.043 157.947 406.043 157.867 406.063C157.236 406.112 156.603 406.126 155.97 406.103C155.77 406.083 154.892 405.993 154.802 406.003C153.54 405.786 152.303 405.445 151.108 404.985L150.968 404.925C149.925 404.43 148.918 403.862 147.953 403.228L147.255 402.719C146.135 401.797 145.102 400.774 144.17 399.664L144.06 399.514C143.294 398.411 142.604 397.256 141.993 396.06C141.933 395.94 141.564 395.161 141.494 395.042C140.762 393.205 140.22 391.298 139.877 389.351L139.737 388.393L139.707 388.233L139.677 387.874C139.465 385.663 139.442 383.439 139.607 381.225C139.807 378.449 140.376 375.674 141.255 372.629C142.153 369.434 143.221 366.309 144.459 363.245C144.978 361.967 145.398 360.649 145.807 359.341C146.447 359.644 147.165 359.745 147.864 359.631C148.503 359.511 149.91 359.321 151.018 359.131L152.616 358.892C152.875 358.842 153.933 358.742 153.644 358.732C154.849 358.68 156.056 358.706 157.258 358.812L157.438 358.852C157.967 358.972 158.506 359.081 159.035 359.221C159.574 359.361 160.103 359.531 160.612 359.72L161.141 359.92C161.241 359.97 161.371 360.03 161.421 360.07C162.479 360.629 163.517 361.178 164.486 361.867L164.745 362.057L165.015 362.276C165.434 362.656 165.854 363.005 166.233 363.404C166.632 363.804 166.992 364.213 167.361 364.622C167.635 364.971 167.895 365.331 168.14 365.7C168.779 366.669 169.358 367.677 169.857 368.735L170.156 369.374L170.296 369.734C170.536 370.393 170.775 371.052 170.975 371.72C171.314 372.839 171.594 373.987 171.814 375.135L172.033 376.433L172.213 378.339C172.373 381.005 172.303 383.631 172.023 386.226ZM217.158 415.038C229.687 415.438 238.463 404.636 241.887 393.674C245.451 382.193 244.463 368.136 236.286 358.812C232.313 354.28 225.774 351.165 219.664 351.474C216.619 351.634 213.285 352.473 210.749 354.2C210.04 354.679 209.421 355.198 208.852 355.777C208.323 355.178 207.484 354.879 206.676 355.418C203.74 357.344 201.854 360 199.767 362.745C197.651 365.531 196.273 368.835 195.005 372.08C192.529 378.429 191.471 385.388 192.659 392.146C194.725 403.797 204.928 414.639 217.158 415.038ZM205.907 398.416C206.346 399.035 206.047 398.596 205.907 398.416ZM209.311 401.85C209.181 401.75 209.141 401.71 209.311 401.85ZM229.498 366.14C229.358 365.94 229.118 365.601 229.498 366.14ZM213.304 361.947C213.514 361.867 213.434 361.897 213.304 361.947ZM201.724 381.694C201.814 380.795 201.794 380.895 201.923 380.116C202.187 378.509 202.547 376.919 203.002 375.354C203.86 372.319 205.228 369.534 206.226 366.579C206.506 365.78 206.805 364.982 207.125 364.183C207.923 364.443 208.872 364.323 209.611 363.724C209.88 363.494 210.19 363.304 210.509 363.115C210.609 363.055 211.707 362.516 211.238 362.695C211.867 362.456 212.466 362.296 213.085 362.027C213.115 362.017 213.155 362.007 213.185 361.977C213.434 361.897 213.684 361.797 213.923 361.727C214.373 361.597 214.822 361.477 215.281 361.368L216.28 361.178L217.288 361.108C217.837 361.088 218.386 361.098 218.935 361.128L220.423 361.238C220.822 361.268 222.18 361.557 220.972 361.278C222.01 361.527 223.038 361.707 224.047 362.067L224.606 362.266C224.975 362.496 225.404 362.666 225.774 362.875C226.203 363.125 226.622 363.404 227.042 363.674L227.102 363.704C227.772 364.255 228.393 364.863 228.958 365.521C229.158 365.73 229.328 365.95 229.508 366.16L229.567 366.25C230.236 367.218 230.865 368.216 231.384 369.285L231.634 369.804L231.734 370.033C231.754 370.043 231.754 370.073 231.764 370.083V370.043L231.784 370.103C231.983 370.662 232.183 371.211 232.363 371.79C232.762 373.088 233.082 374.406 233.311 375.734L233.411 376.343V376.413C233.441 377.022 233.521 377.631 233.561 378.23C233.723 380.609 233.663 382.999 233.381 385.368C233.371 385.418 233.261 386.266 233.211 386.486C232.812 388.767 232.2 391.007 231.384 393.175L231.095 393.923C231.075 393.983 231.035 394.043 230.995 394.113C230.516 395.111 230.027 396.11 229.448 397.078C229.169 397.553 228.876 398.019 228.569 398.476L228.1 399.145L228.03 399.245L228.02 399.265C227.351 400.023 226.702 400.792 225.973 401.481C225.684 401.76 225.384 402 225.095 402.26C225.324 402.06 225.035 402.359 224.865 402.459C224.526 402.679 224.216 402.918 223.887 403.118C223.268 403.504 222.628 403.854 221.97 404.166L221.9 404.186C221.002 404.496 220.103 404.725 219.165 404.915C219.145 404.895 218.286 405.015 218.017 405.015C217.468 405.015 216.928 404.985 216.379 404.965H216.28C216.1 404.925 215.9 404.905 215.701 404.855C215.107 404.729 214.521 404.573 213.943 404.386C213.684 404.306 213.434 404.196 213.185 404.126L213.145 404.116C212.676 403.887 212.226 403.667 211.777 403.418C211.291 403.155 210.818 402.868 210.359 402.559L209.681 402.09L209.431 401.91C208.586 401.212 207.786 400.462 207.035 399.664C206.656 399.255 206.296 398.815 205.937 398.386C205.917 398.386 205.917 398.366 205.897 398.346L205.278 397.458C204.633 396.501 204.056 395.5 203.551 394.463C203.451 394.283 203.181 393.614 203.151 393.574C202.674 392.41 202.309 391.203 202.063 389.97C202.033 389.77 201.844 388.492 201.844 388.642C201.611 386.333 201.571 384.009 201.724 381.694ZM259.667 408.25C263.171 412.642 268.073 416.396 273.923 416.406C279.444 416.426 284.805 414.01 288.679 410.116C292.423 406.333 294.839 401.401 296.476 396.379C298.243 390.988 299.072 385.158 299.371 379.507C299.701 372.918 298.722 366.1 295.318 360.359C291.854 354.529 286.013 349.977 279.085 349.537C274.003 349.218 267.534 351.664 265.108 356.456C264.822 356.311 264.503 356.246 264.183 356.267C263.864 356.288 263.556 356.395 263.291 356.576C258.1 359.95 255.314 366.2 253.657 371.97C251.924 378.117 251.516 384.562 252.459 390.879C253.348 397.208 255.654 403.238 259.667 408.25ZM271.997 406.473C271.767 406.363 271.557 406.333 271.997 406.473ZM285.764 363.584C286.013 363.943 285.894 363.764 285.764 363.584ZM276.16 359.042C276.519 358.972 276.359 359.002 276.16 359.042ZM260.925 378.888C260.985 378.16 261.045 377.421 261.125 376.692C261.195 376.193 261.155 376.492 261.145 376.592L261.344 375.374C261.844 372.559 262.592 369.764 263.571 367.068C264.14 365.521 264.739 363.953 265.288 362.386C266.286 363.185 267.774 363.294 269.102 362.206C269.631 361.777 270.519 361.088 270.958 360.819L272.316 360.09C272.403 360.04 272.493 359.997 272.586 359.96C272.686 359.93 272.985 359.78 273.085 359.76C274.023 359.471 274.982 359.291 275.95 359.101L275.99 359.092C276.23 359.062 276.459 359.052 276.689 359.042C277.228 359.022 277.757 359.042 278.286 359.062H278.406L278.985 359.171C279.444 359.271 279.894 359.371 280.343 359.511C280.592 359.581 280.832 359.671 281.062 359.76C281.082 359.76 281.092 359.76 281.111 359.78C281.661 360.12 282.26 360.379 282.799 360.739C282.978 360.859 283.148 360.988 283.338 361.098L283.358 361.108L283.368 361.118C283.727 361.468 284.126 361.777 284.486 362.136C284.885 362.536 285.275 362.985 285.654 363.414C285.692 363.454 285.725 363.497 285.754 363.544L286.193 364.183C286.832 365.161 287.391 366.18 287.89 367.238C287.91 367.248 287.94 367.338 287.97 367.418L288.15 367.897C289.249 370.992 289.75 374.268 289.627 377.551C289.649 383.755 288.567 389.914 286.433 395.74L286.143 396.499L286.123 396.559L286.083 396.649C285.215 398.526 284.136 400.163 283.068 401.91L282.619 402.449C282.332 402.784 282.033 403.107 281.72 403.418C281.361 403.767 280.992 404.106 280.622 404.436C280.066 404.853 279.479 405.237 278.865 405.564L278.077 405.953C277.807 406.033 277.178 406.263 277.038 406.313C276.499 406.47 275.952 406.603 275.401 406.712L274.882 406.782L274.532 406.802C274.083 406.822 273.634 406.802 273.185 406.802L272.686 406.702L272.047 406.502C271.677 406.293 271.298 406.103 270.928 405.883C270.769 405.784 270.26 405.404 270.11 405.304C270.01 405.205 269.87 405.105 269.84 405.075C269.077 404.43 268.344 403.751 267.644 403.038C266.09 401.484 264.819 399.669 263.89 397.677C263.84 397.577 263.341 396.499 263.301 396.449C262.591 394.656 262.02 392.81 261.594 390.928C261.014 388.442 260.732 385.895 260.755 383.341C260.735 381.824 260.815 380.356 260.925 378.888ZM321.973 383.91C326.226 379.597 329.88 374.745 334.303 370.562C336.513 368.446 338.861 366.478 341.331 364.672C341.261 367.128 341.231 369.584 341.231 372.01C341.211 377.131 341.331 382.273 341.701 387.384C342.11 392.775 342.699 398.136 343.428 403.497C343.757 405.973 344.047 408.509 344.546 410.965C344.706 411.724 345.205 412.772 345.364 413.211C345.484 413.541 345.914 414.869 346.163 415.358C346.823 416.717 347.798 417.898 349.008 418.802C350.506 419.92 352.792 419.002 353.661 417.584C355.128 415.188 355.128 411.534 354.709 408.759C354.339 406.273 353.89 403.787 353.531 401.301C353.471 400.923 353.418 400.543 353.371 400.163C353.431 400.572 353.411 400.463 353.331 399.814L353.112 398.077C352.643 394.326 352.264 390.564 351.973 386.795C351.555 381.775 351.255 376.745 351.075 371.71C350.905 366.579 351.035 361.448 350.905 356.316C350.896 355.435 350.629 354.577 350.138 353.846C349.646 353.115 348.952 352.544 348.14 352.203C346.343 351.474 344.706 351.943 343.238 353.141C338.346 357.095 333.444 361.128 329.082 365.681C324.649 370.323 320.296 375.524 317.83 381.494C316.862 383.89 320.356 385.547 321.973 383.91ZM186.489 261.145L186.549 261.095C186.329 261.255 186.369 261.225 186.489 261.145ZM229.128 262.842C229.113 262.824 229.097 262.807 229.078 262.792L229.038 262.762C229.071 262.79 229.094 262.816 229.128 262.842ZM225.923 289.178H225.953C226.013 289.178 226.083 289.158 226.153 289.138L225.923 289.178ZM224.915 289.178C224.885 289.178 224.855 289.178 224.845 289.158L224.915 289.178ZM298.602 311.381L298.522 311.371H298.483H298.602V311.381ZM353.641 310.562C353.75 310.263 353.701 310.403 353.641 310.562ZM353.631 310.612V310.592L353.651 310.572L353.631 310.612ZM369.654 315.674C369.635 315.617 369.615 315.56 369.594 315.504L369.654 315.674ZM356.845 335.181L356.865 335.221C356.865 335.251 356.895 335.291 356.915 335.321C356.935 335.361 356.915 335.351 356.845 335.181ZM196.073 90.0998C186.342 90.113 177.013 93.9868 170.134 100.871C163.256 107.755 159.39 117.087 159.384 126.819C159.398 136.545 163.267 145.869 170.145 152.747C177.022 159.625 186.347 163.494 196.073 163.507C205.8 163.494 215.124 159.625 222.002 152.747C228.879 145.869 232.749 136.545 232.762 126.819C232.757 117.087 228.891 107.755 222.012 100.871C215.134 93.9868 205.805 90.113 196.073 90.0998ZM196.073 152.416C189.289 152.4 182.788 149.698 177.991 144.901C173.194 140.104 170.492 133.603 170.476 126.819C170.486 120.031 173.186 113.524 177.984 108.723C182.781 103.922 189.286 101.217 196.073 101.201C202.861 101.217 209.365 103.922 214.163 108.723C218.96 113.524 221.66 120.031 221.671 126.819C221.657 133.604 218.957 140.108 214.159 144.908C209.362 149.707 202.859 152.4 196.073 152.416ZM332.087 90.0998C322.355 90.113 313.026 93.9868 306.148 100.871C299.269 107.755 295.403 117.087 295.398 126.819C295.411 136.545 299.281 145.869 306.158 152.747C313.036 159.625 322.36 163.494 332.087 163.507C341.813 163.494 351.137 159.625 358.015 152.747C364.893 145.869 368.762 136.545 368.775 126.819C368.77 117.087 364.904 107.755 358.025 100.871C351.147 93.9868 341.818 90.113 332.087 90.0998ZM332.087 152.416C325.303 152.4 318.801 149.698 314.004 144.901C309.207 140.104 306.505 133.603 306.489 126.819C306.5 120.031 309.199 113.524 313.997 108.723C318.795 103.922 325.299 101.217 332.087 101.201C338.874 101.217 345.379 103.922 350.176 108.723C354.974 113.524 357.673 120.031 357.684 126.819C357.671 133.604 354.97 140.108 350.173 144.908C345.375 149.707 338.872 152.4 332.087 152.416Z" fill="white"/>
</g>
<defs>
<clipPath id="clip0_1_8">
<rect width="480" height="702.829" fill="white"/>
</clipPath>
</defs>
</svg>
