<svg width="28" height="28" viewBox="0 0 28 28" fill="none" xmlns="http://www.w3.org/2000/svg">
<path d="M0 1.97717C0 0.885401 0.907493 -0.00018692 2.027 -0.00018692H25.4027C26.5221 -0.00018692 27.4297 0.885401 27.4297 1.97717V25.6262C27.4297 26.7183 26.5221 27.6035 25.4027 27.6035H2.027C0.907493 27.6035 0 26.7183 0 25.6262V1.97717Z" fill="#006699"/>
<path fill-rule="evenodd" clip-rule="evenodd" d="M8.31492 23.1069V10.6423H4.17191V23.1069H8.31492ZM6.2434 8.94048C7.68815 8.94048 8.58739 7.98334 8.58739 6.78719C8.56046 5.56411 7.68815 4.63353 6.27081 4.63353C4.85361 4.63353 3.927 5.56411 3.927 6.78719C3.927 7.98334 4.82605 8.94048 6.21639 8.94048H6.24332H6.2434Z" fill="white"/>
<path fill-rule="evenodd" clip-rule="evenodd" d="M10.6072 23.1069H14.7501V16.1462C14.7501 15.7736 14.7771 15.4015 14.8865 15.1352C15.186 14.3909 15.8677 13.62 17.0122 13.62C18.5113 13.62 19.111 14.763 19.111 16.4387V23.1069H23.2537V15.9599C23.2537 12.1313 21.2097 10.3498 18.484 10.3498C16.2489 10.3498 15.2677 11.5991 14.7226 12.45H14.7503V10.6423H10.6073C10.6617 11.8119 10.6073 23.1069 10.6073 23.1069H10.6072Z" fill="white"/>
</svg>
